<?xml version="1.0" encoding="UTF-8" standalone="no"?>
<!-- Created with Inkscape (http://www.inkscape.org/) -->
<svg id="svg3032" xmlns:rdf="http://www.w3.org/1999/02/22-rdf-syntax-ns#" xmlns="http://www.w3.org/2000/svg" height="67.031" width="67.969" version="1.1" xmlns:cc="http://creativecommons.org/ns#" xmlns:dc="http://purl.org/dc/elements/1.1/">
 <metadata id="metadata3037">
  <rdf:RDF>
   <cc:Work rdf:about="">
    <dc:format>image/svg+xml</dc:format>
    <dc:type rdf:resource="http://purl.org/dc/dcmitype/StillImage"/>
    <dc:title/>
   </cc:Work>
  </rdf:RDF>
 </metadata>
 <g id="layer1" transform="translate(3.1875,12.375)" stroke="#c87137" fill="none">
  <path id="path3895" stroke-dashoffset="0" transform="translate(-0.4375,1.40625)" stroke-dasharray="none" stroke-miterlimit="4.69999932999999981" stroke-width="1.20000005000000010" d="m56.954,41.017-8.828,7.5112-10.865,4.0388-11.591,0.07935l-10.918-3.889-8.93-7.39-5.8641-9.998-2.0908-11.401,1.9345-11.428,5.7267-10.078,8.8277-7.5111,10.865-4.0388,11.591-0.07935,10.919,3.8897,8.93,7.3896,5.8641,9.9982,2.0909,11.401-1.9346,11.428z"/>
  <path id="path3916" stroke-linejoin="miter" d="M1,33.94,67.364,33.486" transform="translate(-3.1875,-12.375)" stroke-linecap="butt" stroke-width="1px"/>
  <path id="path3918" stroke-linejoin="miter" d="M27.727,0.84943,40,65.94" transform="translate(-3.1875,-12.375)" stroke-linecap="butt" stroke-width="1px"/>
  <path id="path3920" stroke-linejoin="miter" d="M39.455,0.39489,34,33.94,2.8182,45.213" transform="translate(-3.1875,-12.375)" stroke-linecap="butt" stroke-width="1px"/>
  <path id="path3922" stroke-linejoin="miter" d="M50.455,4.8494,34.091,34.122,8.4545,55.213" transform="translate(-3.1875,-12.375)" stroke-linecap="butt" stroke-width="1px"/>
  <path id="path3924" stroke-linejoin="miter" d="M59.455,11.486,34,34.031,17.455,62.577" transform="translate(-3.1875,-12.375)" stroke-linecap="butt" stroke-width="1px"/>
  <path id="path3926" stroke-linejoin="miter" d="m65.364,21.849-31.273,12-5.5455,32.455" transform="translate(-3.1875,-12.375)" stroke-linecap="butt" stroke-width="1px"/>
  <path id="path3928" stroke-linejoin="miter" d="M17.182,4.6676,34,33.759,65.364,44.94" transform="translate(-3.1875,-12.375)" stroke-linecap="butt" stroke-width="1px"/>
  <path id="path3930" stroke-linejoin="miter" d="m8.1818,12.031,51.091,43" transform="translate(-3.1875,-12.375)" stroke-linecap="butt" stroke-width="1px"/>
  <path id="path3932" stroke-linejoin="miter" d="M2.2727,22.213,34,33.759,51,62.395" transform="translate(-3.1875,-12.375)" stroke-linecap="butt" stroke-width="1px"/>
 </g>
</svg>
