<?xml version="1.0" encoding="UTF-8" standalone="no"?>
<!-- Created with Inkscape (http://www.inkscape.org/) -->
<svg id="svg3032" xmlns:rdf="http://www.w3.org/1999/02/22-rdf-syntax-ns#" xmlns="http://www.w3.org/2000/svg" height="300" width="300" version="1.1" xmlns:cc="http://creativecommons.org/ns#" xmlns:dc="http://purl.org/dc/elements/1.1/">
 <metadata id="metadata3037">
  <rdf:RDF>
   <cc:Work rdf:about="">
    <dc:format>image/svg+xml</dc:format>
    <dc:type rdf:resource="http://purl.org/dc/dcmitype/StillImage"/>
    <dc:title/>
   </cc:Work>
  </rdf:RDF>
 </metadata>
 <path d="m263.52,245.38-38.977,33.515-47.971,18.021-51.176,0.35406l-48.201-17.36-39.428-32.97-25.891-44.61-9.2311-50.87,8.5411-50.99,25.285-44.972,38.975-33.514,47.97-18.022,51.176-0.35406,48.209,17.356,39.428,32.972,25.891,44.612,9.2317,50.871-8.5416,50.992z" stroke-dashoffset="0" stroke="#c87137" stroke-miterlimit="4.69999933" stroke-dasharray="none" stroke-width="3" fill="none"/>
 <path stroke-linejoin="miter" d="M4.0456,152.31,297.05,150.28" stroke="#c87137" stroke-linecap="butt" stroke-miterlimit="4" stroke-dasharray="none" stroke-width="2" fill="none"/>
 <path stroke-linejoin="miter" d="M122.33,4.6574,176.52,295.09" stroke="#c87137" stroke-linecap="butt" stroke-miterlimit="4" stroke-dasharray="none" stroke-width="2" fill="none"/>
 <path stroke-linejoin="miter" d="M174.12,2.6297,150.03,152.09,12.356,202.33" stroke="#c87137" stroke-linecap="butt" stroke-miterlimit="4" stroke-dasharray="none" stroke-width="1.998595" fill="none"/>
 <path stroke-linejoin="miter" d="M222.12,22.502,150.09,152.62,37.239,246.38" stroke="#c87137" stroke-linecap="butt" stroke-miterlimit="4" stroke-dasharray="none" stroke-width="1.99321163" fill="none"/>
 <path stroke-linejoin="miter" d="M262.42,52.118,150.03,152.71,76.981,280.08" stroke="#c87137" stroke-linecap="butt" stroke-miterlimit="4" stroke-dasharray="none" stroke-width="2" fill="none"/>
 <path stroke-linejoin="miter" d="M288.51,98.357,150.43,151.9,125.95,296.71" stroke="#c87137" stroke-linecap="butt" stroke-miterlimit="4" stroke-dasharray="none" stroke-width="2" fill="none"/>
 <path stroke-linejoin="miter" d="M75.776,21.694,150.03,151.5,288.51,201.39" stroke="#c87137" stroke-linecap="butt" stroke-miterlimit="4" stroke-dasharray="none" stroke-width="2" fill="none"/>
 <path stroke-linejoin="miter" d="M36.038,54.549,261.61,246.41" stroke="#c87137" stroke-linecap="butt" stroke-miterlimit="4" stroke-dasharray="none" stroke-width="2" fill="none"/>
 <path stroke-linejoin="miter" d="M9.9487,99.981,150.03,151.5,225.09,279.27" stroke="#c87137" stroke-linecap="butt" stroke-miterlimit="4" stroke-dasharray="none" stroke-width="2" fill="none"/>
</svg>
